PathFileType  4	(X/Y/Z) C:\Users\antoi\Documents\MyRepositories\mobilecap\ResultsAnalysis
DataRate	CameraRate	NumFrames	NumMarkers	Units	OrigDataRate	OrigDataStartFrame	OrigNumFrames
100.0	100.0	5	51	mm	100.0	52	136
Frame#	Time	r_knee			r_shank_antsup			r_ankle			r_calc			r_5meta			r_toe			L_knee			L_shank_antsup			L_ankle			L_calc			L_5meta			L_toe			r_sh2			r_sh3			r_sh4			L_sh2			L_sh3			r_thigh1			r_thigh2			r_thigh3			r_thigh4			r_thigh5			L_thigh1			L_thigh2			L_thigh3			L_thigh4			r.ASIS			r.PSIS			L.ASIS			L.PSIS			C7			R_Shoulder			L_Shoulder			R_Sternum			L_Sternum			R_humerus			R_elbow_med			R_elbow_lat			R_forearm			R_wrist_radius			R_wrist_ulna			L_humerus			L_elbow_med			L_elbow_lat			L_forearm			L_wrist_radius			L_wrist_ulna			R_HJC			L_HJC			R_HJC_reg			L_HJC_reg			
		X1	Y1	Z1	X2	Y2	Z2	X3	Y3	Z3	X4	Y4	Z4	X5	Y5	Z5	X6	Y6	Z6	X7	Y7	Z7	X8	Y8	Z8	X9	Y9	Z9	X10	Y10	Z10	X11	Y11	Z11	X12	Y12	Z12	X13	Y13	Z13	X14	Y14	Z14	X15	Y15	Z15	X16	Y16	Z16	X17	Y17	Z17	X18	Y18	Z18	X19	Y19	Z19	X20	Y20	Z20	X21	Y21	Z21	X22	Y22	Z22	X23	Y23	Z23	X24	Y24	Z24	X25	Y25	Z25	X26	Y26	Z26	X27	Y27	Z27	X28	Y28	Z28	X29	Y29	Z29	X30	Y30	Z30	X31	Y31	Z31	X32	Y32	Z32	X33	Y33	Z33	X34	Y34	Z34	X35	Y35	Z35	X36	Y36	Z36	X37	Y37	Z37	X38	Y38	Z38	X39	Y39	Z39	X40	Y40	Z40	X41	Y41	Z41	X42	Y42	Z42	X43	Y43	Z43	X44	Y44	Z44	X45	Y45	Z45	X46	Y46	Z46	X47	Y47	Z47	X48	Y48	Z48	X49	Y49	Z49	X50	Y50	Z50	X51	Y51	Z51	

52	0.51000000	301.93222	462.37550	-90.44066	300.62243	337.43862	-115.69108	158.55022	100.59563	-170.81795	108.21818	69.77938	-228.31969	263.13812	35.83639	-140.51485	303.84849	51.94294	-180.88286	624.06370	471.52408	-368.47565	703.91195	406.85220	-317.49561	761.50501	109.44703	-321.20091	733.92541	56.30253	-270.81056	897.41335	112.00064	-325.68404	915.08592	155.31591	-277.10797	262.72871	237.16538	-142.78601	243.09701	347.47273	-68.56423	189.23387	254.43410	-105.08046	650.89112	399.54178	-388.46234	693.46014	285.16877	-391.94517	476.92429	735.66814	-70.35597	454.60500	626.48955	-77.34507	401.12490	610.56601	-40.84910	373.75666	748.81878	-26.46497	351.27148	637.02182	-36.06192	555.45463	757.00550	-389.59020	623.68770	639.09288	-379.30985	460.03809	706.90799	-421.07064	529.89407	584.99989	-405.25785	517.24659	905.39952	-97.32696	335.90935	950.55054	-178.00710	533.04426	910.79109	-338.67569	340.10221	943.58213	-294.89272	359.87608	1400.10327	-206.60756	425.83845	1367.23204	-61.52861	406.59717	1376.93697	-371.53177	489.40813	1352.13959	-199.27772	488.01526	1350.86721	-243.38278	472.33347	1249.49232	2.10846	447.81672	1035.49738	-24.33337	482.16917	1057.26632	40.05635	592.39958	991.58751	38.63289	677.55680	934.03154	21.52480	658.73030	906.40385	41.56821	395.74416	1227.87144	-440.38881	319.07000	1049.10958	-363.94441	309.89449	1061.17370	-437.48209	324.09832	970.63962	-479.08484	319.95562	838.83770	-488.33363	288.31849	844.92351	-495.71650	428.94448	834.22808	-129.34717	447.36514	831.71826	-317.80690	446.19924	847.30580	-129.86284	451.91380	837.81072	-289.14971	
53	0.52000000	310.26334	462.25054	-90.47779	306.74640	337.01587	-115.50480	159.79014	102.76731	-170.34392	109.23590	72.75879	-227.81160	263.33417	35.73977	-140.17919	304.32253	51.26898	-180.54213	634.41198	468.63818	-367.74987	714.84643	404.09292	-316.83920	772.26514	106.70160	-317.66531	745.70266	53.49785	-266.30171	908.17363	109.96777	-323.68347	926.16838	153.63230	-275.56058	266.85582	237.44997	-142.34270	249.23961	348.44568	-68.70559	193.34888	256.58447	-105.42879	660.88952	395.69876	-387.13499	703.67108	281.29504	-389.67777	487.95291	733.84037	-69.83820	464.76606	624.92037	-76.52220	410.66921	609.62649	-40.71996	384.62781	748.09988	-26.69068	360.78042	636.60044	-36.67764	569.46185	755.36326	-389.77127	636.45181	636.74207	-378.95792	473.61235	706.07705	-421.35625	542.07292	583.34902	-404.76677	530.09844	903.38720	-96.82691	349.18243	948.47972	-178.79210	547.00598	909.61994	-338.50067	353.84632	941.69321	-295.55739	372.30178	1398.16201	-207.01478	438.40609	1365.41327	-61.81258	419.11257	1374.77323	-371.88096	501.97527	1350.28392	-199.59737	500.59833	1348.94603	-243.67201	484.84964	1247.60718	1.80922	460.11985	1033.57156	-24.64868	494.59808	1055.40150	39.79885	604.83475	989.90279	38.10516	690.04159	932.52239	20.81226	671.34620	904.86981	40.89802	407.82654	1225.67594	-440.62616	331.10946	1047.11333	-363.72552	321.41675	1059.26976	-437.17275	334.77788	968.82732	-478.98777	329.61100	837.03188	-488.26708	297.99419	843.33445	-495.49785	442.09484	832.16401	-129.81591	461.52478	830.22154	-318.18239	459.26787	845.41613	-129.79008	465.64182	836.14422	-289.34307	
54	0.53000000	319.11195	462.11547	-90.67434	313.41539	336.67118	-115.41160	161.31071	105.18469	-169.85156	110.46337	76.15405	-227.27339	263.52257	35.70300	-139.78000	304.93733	50.52888	-180.13354	645.67981	466.17083	-366.51151	725.84581	400.69250	-315.66578	780.27266	103.01134	-314.64635	754.03953	50.19522	-262.59139	916.02205	105.80976	-322.06594	934.79533	149.39893	-274.16946	271.36484	237.85014	-141.97868	255.87230	349.54152	-68.93558	197.94802	258.92165	-105.82857	671.28357	392.07127	-385.54475	713.13975	277.31768	-387.46437	499.24200	732.10672	-69.41747	475.21355	623.40851	-75.82168	420.52241	608.73359	-40.72418	395.64614	747.42991	-27.13051	370.54017	636.21132	-37.55333	583.77224	753.91919	-389.97542	649.78461	634.77498	-378.35522	487.56583	705.24548	-421.54092	555.10043	581.98625	-404.01887	543.25357	901.42610	-96.42869	362.78338	946.64636	-179.55277	561.17401	908.58485	-338.44534	367.85712	940.04060	-296.16846	384.76219	1396.32156	-207.52259	450.95891	1363.77175	-62.19570	431.72826	1372.78281	-372.29336	514.60870	1348.59558	-199.96195	513.24773	1347.20550	-243.99772	497.30021	1245.89722	1.44855	472.17838	1031.87898	-25.20335	506.71272	1053.66789	39.34356	616.82892	988.06985	37.52214	701.93246	930.61929	20.14546	683.29115	903.00154	40.24977	420.09658	1223.66496	-440.93602	343.45654	1045.26666	-363.55070	333.21469	1057.48784	-436.90107	345.87260	967.17231	-478.93789	339.90254	835.35911	-488.19143	308.32846	841.81675	-495.26904	455.50980	830.23340	-130.35443	475.83799	828.91096	-318.63269	472.57219	843.69249	-129.78835	479.52768	834.63982	-289.62138	
55	0.54000000	328.48661	461.96694	-91.05983	320.68248	336.41338	-115.37783	163.15929	107.89831	-169.33748	111.92665	80.00221	-226.70386	263.73014	35.73026	-139.36705	305.69436	49.74609	-179.65975	657.85577	464.06382	-364.81581	736.83568	396.77718	-313.93506	786.09676	98.66106	-312.14870	759.48326	46.79823	-259.68348	921.56893	99.83895	-320.66066	941.52209	142.89817	-272.75791	276.27009	238.36491	-141.68022	262.98039	350.76805	-69.23961	203.07173	261.44750	-106.26166	682.20274	388.75457	-383.77452	722.18211	273.39479	-385.32803	510.80531	730.46319	-69.07370	485.97484	621.95753	-75.23705	430.69305	607.87470	-40.85422	406.80644	746.80771	-27.82441	380.62985	635.81752	-38.61820	598.34870	752.56654	-390.13270	663.57794	633.04107	-377.48996	501.84869	704.38564	-421.59772	568.82518	580.80764	-403.04434	556.72091	899.51388	-96.10472	376.72701	945.07310	-180.28880	575.58717	907.60131	-338.47323	382.16264	938.63218	-296.73808	397.25791	1394.57267	-208.14592	463.46768	1362.29443	-62.68378	444.42687	1370.97242	-372.78241	527.29996	1347.10001	-200.37685	525.95276	1345.67646	-244.38086	509.67397	1244.34894	1.01540	483.99336	1030.40499	-25.96943	518.50516	1052.05582	38.70216	628.38807	986.08365	36.89653	713.24987	928.33057	19.53382	694.58307	900.80369	39.63573	432.55329	1221.85187	-441.33312	356.12134	1043.55913	-363.42336	345.30135	1055.83419	-436.67573	357.39080	965.65256	-478.92929	350.83387	833.80119	-488.12794	319.30178	840.37186	-495.04788	469.16870	828.45079	-130.92408	490.30842	827.74120	-319.11744	486.11177	842.11935	-129.83136	493.58762	833.26323	-289.95111	
56	0.55000000	338.39753	461.79969	-91.64136	328.58747	336.24637	-115.36650	165.37555	110.96334	-168.79616	113.65789	84.35103	-226.09667	263.99283	35.81940	-138.97910	306.59122	48.95141	-179.13083	670.75021	462.22737	-362.80696	747.73051	392.61011	-311.70879	790.51327	94.08425	-310.12641	762.83474	43.83562	-257.46014	925.58067	92.53137	-319.26217	947.06750	134.61495	-271.15520	281.59267	239.00096	-141.42089	270.57062	352.13655	-69.59690	208.75212	264.17233	-106.70763	693.64570	385.82664	-381.92893	731.11992	269.70436	-383.27129	522.65842	728.90996	-68.78862	497.09134	620.57514	-74.75169	441.21693	607.04668	-41.09097	418.14055	746.23267	-28.79087	391.14038	635.39547	-39.78909	613.14200	751.24355	-390.15332	677.66757	631.40960	-376.36415	516.40152	703.53016	-421.52129	582.99354	579.73448	-401.91713	570.49425	897.65471	-95.81950	391.00796	943.76231	-181.00138	590.26959	906.60131	-338.53766	396.77029	937.47019	-297.28896	409.80286	1392.89950	-208.89296	475.90195	1360.96880	-63.27717	457.19856	1369.34461	-373.36749	540.04204	1345.83262	-200.84902	538.71099	1344.39499	-244.84591	521.96135	1242.93746	0.49480	495.56952	1029.11610	-26.91705	529.97954	1050.54516	37.88792	639.52821	983.93955	36.24313	724.02166	925.66586	18.98718	705.24676	898.28215	39.06737	445.19724	1220.24088	-441.83228	369.11517	1041.97161	-363.35285	357.69112	1054.30973	-436.51223	369.33844	964.23760	-478.96181	362.41206	832.34119	-488.09056	330.89837	838.98535	-494.84689	483.04166	826.82569	-131.48849	504.93915	826.67198	-319.59789	499.88459	840.66740	-129.89032	507.83483	831.98723	-290.29573	
